<?xml version="1.0" encoding="UTF-8"?>
<svg id="Layer_2" data-name="Layer 2" xmlns="http://www.w3.org/2000/svg" viewBox="0 0 445.1 501.59">
  <defs>
    <style>
      .cls-1 {
        fill: #f8991c;
      }

      .cls-2 {
        fill: #93652e;
      }

      .cls-3 {
        fill: #0099d7;
      }

      .cls-4 {
        fill: #fff;
      }
    </style>
  </defs>
  <g id="Layer_1-2" data-name="Layer 1">
    <g>
      <path d="M258.04,16.59c1.35-1.74,3.4-4.1,6.28-6.44,9.05-7.37,18.92-8.65,23.19-9.15,2.48-.29,13-1.09,25.36,3.69,17.73,6.85,29.5,22.95,30.85,41.98,3.48.94,7.61-.95,10.56-.91,13.19.19,30.92,23.05,46.94,26.23,6.03,1.2,11.74-2.15,6.99,7.5l-12.24,9.98c14.16,10.22,30.88,29.61,21.15,47.85-2.1,3.93-8.32,7.42-8.79,9.08-.83,2.92,3.7,12.21,4.19,16.57,1.42,12.56,1.22,24.6-7.64,34.38-1.48,1.63-6.36,4.84-6.62,5.7-.58,1.9.93,3.02,2.09,6.56,1.7,5.2.06,6.36,1.26,8.88,2.31,4.84,9.42,2.75,21.59,8.29,6,2.73,8.56,5.19,9.46,6.11,1.01,1.03,8.21,8.39,5.62,13.44-.27.53-1.67,3.02-6.74,3.79,6.38,1.74,15.49,11.28,13.17,18.18-1.58,4.68-9.63.99-13.18,1.86.46.34,5.36,4.08,5.05,10.02-.19,3.69-2.42,8.74-6.72,9.5-2.87.51-5.31-1.14-6.11-1.73.41,4.46-.23,17.21-5.22,18.72-6.35,1.92-6.82-4.29-9.89-7.5-4.58-4.79-15.74-6.27-22.13-6.15-10.29.18-17.98,6.89-28.35,7.17-.29,2.38,1.97,3.47,1.92,5.88-.21,10.49-6.78,4.72-12.47,4.12-3.93-.42-7.95,0-11.69,1.13,1.32,9.42,15.29,8.78,8.28,19.95-5.12,8.16-12.66,4.23-14.82,5.75-.51.36-3.45,9.74-4.39,11.73-1.3,2.76-6.41,10.65-6.69,12.27-.71,4.12,2.54,4.3,3.9,6.77,6.42,11.63,14.19,33.19,1.43,42.99-1.21.93-3.96,1.49-4.23,1.86-.55.76-.06,6.71-.45,9.01-.76,4.54-3.01,7.73-4.16,11.95,5.57-.4,10.14.42,14.82,3.53,6.23,4.13,9.92,11.42,14.58,16.55,5.22,5.75,21.43,8.32,3.95,15.52,6.31,8.88-2.28,11.03-10,11.11,3.72,6.74-3.11,8.89-8.9,8.9-.32.26,3.88,4.6.85,7.51-4.09,3.94-31.89,2.45-39.25,2.54-11.74.14-22.68,3.09-34.41,2.16-33.79-2.68-64.7-34.21-39.98-66.64,2.21-2.89,5.99-4.03,7.65-6.8,1.97-3.28,2.26-9.01,3.75-12.93,1.66-4.37,4.48-8.58,6.88-12.56-25.76-2.47-49.5-13.65-65.62-33.97-1.11-.54-10.44,2.25-12.88,2.71-2.41.45-5.12-.33-7.45.34-2.84.81-3.18,4.98-8,5.42-6.81.62-6.28-1.27-8.88-6.74-19.3,19.19-49.15,26.39-67.86,2.25-8.64-11.15-6.81-17.02-8.4-29.41-1.65-12.91-3.86-14.57-2.2-29.1.79-6.86-3.73-10.11-4.39-16.56-.85-8.34,2.57-11.2,3.11-16.95.32-3.39-1.37-6.89-.62-11.71,1.18-7.53,9.57-20.91,18.05-20.88,2.14,0,3.95,1.47,6.44,1,2.35-.44,5.36-3.71,8.8-4.64,7.49-2.02,12.13-1.49,13.15,7.02,7.29-6.58,22.51-6.93,20,5.55,10.71-3.56,14.6-.5,13.35,11.13l13.33-5c-2.99-2.61-8.96-5.56-8.84-9.9.02-.93,1.18-2.52.99-2.8-.24-.36-6.24-2.97-7.64-4.06-2.13-1.65-5.66-6.42-7.54-6.98-2.42-.73-8.13,1.16-11.98.94-8.41-.48-19.22-3.78-26.48-8-2.99-1.74-9.6-7.87-11.56-8.45-3.31-.98-8.29.16-12-.23-45.29-4.86-71.77-50.8-54.14-93.03,11.07-26.51,40.75-43.43,69.13-38.14-3.99,4.64-9.47,5.5-8.95,12.76.61,8.55,8.74,6.86,10.17,9.04,1.87,2.88.72,7.9,1.09,8.11.45.26,1.72-.15,2.3.2,2.06,1.25,2.02,3,6.11,3.16,3.27.12,6.42-1.94,7.67-1.81,2.71.28,5.02,8.5,13.87,4.66,7.91-3.44,1.75-5.74,1.11-12.22-.83-8.44,2.41-14.91,7.81-21.11,1.72-1.97,6.65-4.84,6.65-6.69-5.52-2.99-11.91-6.07-14.75-12.02-.69-1.44-.74-2.46-.36-3.2,1.33-2.65,7.2-2.22,9.86-2.27,14.38-.23,18.91-17.26,39.52-24.97,2.83-1.06,7.43-2.49,13.61-3.07.43-2.45,1.2-5.78,2.73-9.5C180.67,14.83,202.01-1.69,224.94.14c16.03,1.28,27.64,11.11,28.54,11.89,2,1.74,3.52,3.37,4.56,4.56Z"/>
      <g>
        <path class="cls-4" d="M219.91,97.02c25.05,0,45.36-20.31,45.36-45.36S244.96,6.3,219.91,6.3s-45.36,20.31-45.36,45.36,20.31,45.36,45.36,45.36ZM230.87,44.42c19.6-1.44,25.87,25.38,10.5,35-5.46,3.42-15.9,2.45-20.7-1.99-11.02-10.2-5.7-31.84,10.2-33.01Z"/>
        <path class="cls-2" d="M42.08,121.13c-3.56,0-6.45,2.89-6.45,6.45s2.89,6.45,6.45,6.45,6.45-2.89,6.45-6.45-2.89-6.45-6.45-6.45Z"/>
        <path class="cls-3" d="M117.44,166.76c3.64,9.14,9.92,18.13,12.81,27.78,5.27-2.07,1.97-12.76,10.02-8.36,2.02,1.1-2.73,6.41-1.09,8.8,2.54,18.91,26.47,24.41,34.26,38.08,1.26,2.2,2.19,7.92,3.43,8.81,4.87,3.53,13.02-11.18,17.86-3.97l-2.22,1.11c23.01,16.6,57.97,21.08,86.15,18.91,19.59-1.51,41.91-8.67,58.06-17.75,10.14-5.7,19.04-13.31,29.8-17.78,2.56.21,1.47,8.89,1.66,11.07,8.91-4.15,16.79-12.58,17.79-22.78.38-3.9-1.09-8.38-.81-11,.33-3.13,5.4-9.41,4.15-14.04,2.9-.31,1.77.01,2.24,1.63,1.04,3.53.71,8.05,3.94,10.59,16.56-7.64,13.84-32.94,8.02-46.99-.94-2.26-3.94-3.21-3.16-6.81,33.67-15.21,1.03-48.19-19.95-56.81,7.91-1.89,15.44-2.71,21.13-9.44-5.21-1.21-10.14-3.17-14.82-5.76-11.93-6.58-23.98-21.96-37.93-19.75-7.23,1.15-4.29,5.7-5.57,11.1-2.02,8.57-5.92,15.93-11.15,21.88-15.45,17.57-41.37,19.29-53.73,15.09-5.4-1.84-10.59-4.93-10.59-4.93-4.96-2.96-8.65-6.17-11.16-8.67-32.14,34.84-87.29,10.04-86.46-36.06-.39-1.36-1.36-1.73-2.65-1.88-8.41-.95-26.31,16.12-34.66,20.97-5.07,2.95-11.18,6.15-17.02,6.9,4.2,6.32,12.17,8.47,18.9,11.12-11.26,8.51-25.17,16.77-20,33.34l8.88-5.55-5.75,10.36c-7.43,15.99-6.76,24.75-.37,40.79ZM160.81,128.95c5.42,2.55,6.21,8.57,10.01,12.22,7.95,7.64,23.86,10.33,34.46,10.01,1.87-.06,3.84-1.29,5.54-1.14,1.74.16,4.09,2.7,5.68,3.82,1.86,1.3,2.19,2.67,5.43,4.01,7.13,2.94,11.26,2.74,18.61.78,5.39-1.44,17.1-7.73,21.42-7.55,3.19.13,11.08,5.32,15.65,6.69,11.15,3.33,20.46,3.32,30.93-2.3,2.49-1.33,5.81-4.88,7.04-5.25,2.26-.69,11.92,1.36,16.44.94,6.26-.59,17.24-4.94,21.73-9.4,3.59-3.58,4.12-10.11,11.07-9.49-5.27,18.66-22.57,25.1-40.57,24.46-2.13-.07-4.28-1.58-6.43-.96-2.47.71-6.82,6.63-10.69,6.64,2.17,12.11,1.5,21.76-4.74,32.5-4.45,7.65-11.96,13.12-20.19,16.5-26.86,11.04-62.63-5.63-63.12-36.34-.06-3.53,2.06-7.95,1.05-10.94-.59-1.77-8.57-4.88-9.87-7.95-3.33-1.54-9.42.79-13.92.6-14-.62-38.12-10.79-35.55-27.84Z"/>
        <path class="cls-2" d="M27.3,162.25c-3.6,0-6.52,2.92-6.52,6.52s2.92,6.52,6.52,6.52,6.52-2.92,6.52-6.52-2.92-6.52-6.52-6.52Z"/>
        <circle class="cls-2" cx="97.14" cy="178" r="6.53"/>
        <path class="cls-2" d="M68.7,164.14c6.63-6.65-4.49-16.39-9.7-9.14-4.43,6.17,3.92,14.93,9.7,9.14Z"/>
        <path class="cls-1" d="M83.3,214.88c12.79-4.11,30.4-18.1,34.2-31.42,2.1-7.37-9.08-21.07-10.32-29.78-.91-6.33-.36-12.95.82-19.16-6.32,2.02-10.79-2.17-15.25-3.1-6.24-1.3-10.85,1.56-16.62-3.96-2.29-2.19-3.21-6.1-4.79-8-2.68-3.23-7.82-3.21-10.29-9.72-1.91-5.03.02-8.18-.29-13.02-11.76,2.28-20.74,4.67-30.5,11.75-53.28,38.63-14.09,127.98,53.04,106.41ZM97.17,166.1c6.62,0,11.98,5.36,11.98,11.98s-5.36,11.98-11.98,11.98-11.98-5.36-11.98-11.98,5.36-11.98,11.98-11.98ZM57.55,149.11c.82-.54,3.51-2.28,7.2-2.11,4.21.19,8.5,2.81,10.37,7.13,2.17,5-.08,9.6-.69,10.73-.58,1.07-2.58,5.21-7.27,6.1-3.7.7-6.84.05-9.27-1.43-5.1-3.09-6.95-10.12-4.83-15.18,1.28-3.05,3.74-4.73,4.49-5.23ZM27.21,180.66c-6.61,0-11.96-5.36-11.96-11.96s5.36-11.96,11.96-11.96,11.96,5.36,11.96,11.96-5.36,11.96-11.96,11.96ZM30.08,127.4c0-6.63,5.37-12,12-12s12,5.37,12,12-5.37,12-12,12-12-5.37-12-12ZM42.95,197.88c0-6.65,5.39-12.04,12.04-12.04s12.04,5.39,12.04,12.04-5.39,12.04-12.04,12.04-12.04-5.39-12.04-12.04Z"/>
        <path class="cls-3" d="M439.32,265.7c1.73-8.43-21.48-14.33-22.13-16.24-.44-1.32-.33-3.56.96-4.39,3.89-2.47,24.19,3.11,11.08-7.64-10.85-8.9-18.95-8.28-29.93-13.42-6.42-3.01-2.74-3.83-3.39-8.75-.5-3.74-2.28-7.14-3.29-10.71l-2.52,13.58c-1.41,7.51-18.17,24.73-25.63,19.84-2.88-1.89-.55-9.15-3.52-7.85-.91.4-2.64,2.82-3.99,3.79-42.72,30.53-98.94,38.15-148.89,21.03-5.47-1.87-14.48-8.89-19.75-10.18-3.86-.95-11.18,8.2-16.31-.28-3.94-6.52-1.93-9.61-9.62-15.95-10.11-8.32-23.68-13.82-26.6-28.44-3.15-.88-4.16,2.16-6.34,3.1-4.51,1.94-9.69,1.88-13.65,5.8.38-6.01,7.19-8.23,12.22-7.79l-6.11-12.22c-3.55,3.27-5.36,8-8.36,11.65-9.23,11.18-21.41,16.66-34.43,22.26,7.33,6.02,17.7,10.77,27.22,11.67,5,.47,11.88-.92,16.41.26,3.19.84,8.74,6.99,12.27,8.86,4.12,2.19,12.34,2.99,14.62,6.51,1.37,2.11,1.69,5.58,3.95,7.71-3.34.29-5.96-1.67-8.81-2.85-1.91-.79-3.51-1.05-1.18,1.18,17.85,13.26,43.94,13.28,55.58,33.91-.95.9-9.64-6.98-11.44-8-6.13-3.5-11.64-3.86-17.51-5.84-10.47-3.53-19.54-9.55-31.08-5.6-10.81,3.7-1.67,6.24-2.39,9.84-.21,1.06-2.42,3.2-3.71,2.93-1.99-.41-1.48-5.15-2.23-6.67-.91-1.83-4.18-2.07-4.84-4.05-.79-2.37.39-10.92-.18-11.5-6.03-.02-9.08,7.05-10.01,12.22-10.67-1.39,3.89-18.26-5.22-20.94-10.85-3.2-8.38,14.8-18.12,12.05v-15.57c-9.37.75-14.9,4.62-16.56,14.01-.37,2.1.44,5.55-.34,6.9-.35.61-8.35,5.69-9.23,7.99-1.51-.75-.03-3,.35-4.09,1.85-5.33,4.51-11.41,5.3-17,1.04-7.3-8.92-.13-11.16,3.36-1.59,2.48-3.67,8.91-3.88,11.78-.22,3.07,1.08,5.18,1,7.55-.1,2.75-2.53,6.31-3.02,9.23-2.01,12.11,5.06,17.56,6.39,27.55.17,1.24-3.13-.29-3.39,1.14.59,16.13-.3,37.84,10.1,51.08,15.96,20.31,37.89,16.6,56.1,1.67,1.99-1.63,10.63-12.18,12.8-9.98-.76,2.4-1.1,10.16,1.77,11.03,6.29,1.91,6.55-8.68,7.79-8.88,7.29-1.21,4.01,3.18,5.49,3.47,6.01,1.2,13.53-3.15,18.59-2.11,2.76.57,10.72,10.74,14.25,13.62,12.76,10.44,31.75,18.58,48.3,19.56,7.36.44,9.14-4.26,16.09-3.34,1.45,1.33-7.7,9.09-8.87,10.58-6.09,7.75-6.07,15.74-10.17,23.19-4.52,8.2-14.14,12.96-17.14,23.99-8.31,30.55,28.2,47.37,53.46,45.68,5.69-.38,11.32-2.93,16.63-3.37,4.77-.4,8.09,1.08,12.18,1.15,3.86.07,28.04.04,29.51-1.17-.37-7.72-11.36-15.16-13.65-20.35-.61-1.37-.32-4.73.32-5.21,1.38-1.04,9.29,7.38,10.58,8.86,3.74,4.28,3.35,9.29,11.64,6.15-3.28-5.18-6-10.86-10.03-15.55-2.26-2.62-14.15-10.82-11.09-13.92,2.42-2.45,13.71,8.36,15.54,10.58,5.22,6.34,4.78,12.75,15.58,10.54-2.36-9.62-13.11-24.01-23.28-26.19-4.06-.87-10.28.52-12.29-4.39-.94-2.29,1.53-1.56,2.75-1.65,2.62-.2,6.25-.26,8.82.09,5.03.68,8.38,3.96,12.88,5.46-3.57-5.79-10.55-9.74-17.35-9.89-4.53-.1-8.25,3.04-12.66,3.23l9.12-11.44c.96-1.76,4.22-10,4.22-11.35v-17.23c2.39.03,1.73,4.86,2.23,5.56.37.52,2.82,0,3.88-1.11,1.08-1.14,2.45-5.6,2.69-7.32,2.19-16.19-8.34-26.67-14.36-40.48,1.56-.1,3.3.67,4.56-.72,2.41-2.66,6.39-12.67,7.73-16.47.78-2.22.77-6.09,1.58-7.31,2.23-3.36,11.42.03,15.81-4.73,3.42-3.7-2.44-4.93-4.73-7.41-2.33-2.53-2.94-6.07-6-8.45-2.09-1.62-8.36-2.83-7.83-5.49.41-2.08,2.23-.96,3.05-.93,10.51.4,18.79-3.37,29.18-.75,1.25-2.8-6.41-5.56-5.55-6.65,3.94-.89,7.88-1.95,11.69-3.33,13.26-4.79,13.36-6.45,19.96-7.83,9.31-1.96,23.37-.81,31.38,7.38,3.07,3.14,4.37,6.42,5.89,5.99,2.12-.61,3.01-7.99-.02-13.42-1.34-2.4-3.17-3.93-4.5-4.84-4.07-1.55-6.41-3.91-6.09-5.68.24-1.31,1.95-2.26,3.38-2.57,3.72-.81,6.03,2.6,13.88,6.61,4.03,2.06,6.86,3.47,8.11,2.39,1.5-1.3.22-5.77-1.94-8.65-2.08-2.76-4.96-4.03-6.22-4.57-4.43-1.9-7.93-1.26-8.73-3.35-.31-.79-.06-1.6.05-1.92,2.24-6.2,19.07-.36,24.32.42ZM390.07,253.26c-4.53-2.46-7.54-3.18-12.51-4.21-1.96-.41-3.23,1.08-2.71-2.24,4.11-.25,7.57-.15,11.43,1.34,4.35,1.68,5.46,5.3,9.68,6.45.38,5.17-3.81-.22-5.89-1.35Z"/>
        <path class="cls-2" d="M53.21,191.37c-4.76,1.36-6.53,10.84-.85,12.69,12.31,4,10.83-15.54.85-12.69Z"/>
        <path class="cls-4" d="M268.97,40.81c2.55,15.62-.36,27.6-8.52,41.09,2.53,2.84,11.66,12.4,26.87,14.67,2.07.31,20.57,2.75,35.69-10.48,13.33-11.66,17.87-30.09,13.67-46.03-.58-2.2-5.92-21.17-25.03-29.89-3.95-1.8-17.19-7.13-32.37-1.82-9.49,3.32-15.42,9.28-18.17,12.46,2.61,4.3,5.38,9.99,7.2,17.03.39,1.51.62,2.6.68,2.96ZM290.04,28.04c27.96-4.79,28.13,40.74-.2,36.35-17.79-2.76-18.66-33.12.2-36.35Z"/>
      </g>
    </g>
  </g>
</svg>