<?xml version="1.0" encoding="UTF-8"?>
<svg id="Layer_2" data-name="Layer 2" xmlns="http://www.w3.org/2000/svg" viewBox="0 0 380.03 417.54">
  <defs>
    <style>
      .cls-1 {
        fill: #ffc776;
      }

      .cls-2 {
        fill: #c4db83;
      }

      .cls-3 {
        fill: #dda883;
      }

      .cls-4 {
        fill: #f4e471;
      }

      .cls-5 {
        fill: #b67e6d;
      }

      .cls-6 {
        fill: #6b3f20;
      }
    </style>
  </defs>
  <g id="Layer_1-2" data-name="Layer 1">
    <g>
      <path d="M330.04,106.92c18.92,19.51,37.1,43,44.98,69.43,7.71,25.87,8.97,60.56-14.11,78.76,5.11,8.18,11.72,33.17,6.44,40.99-1.33,1.97-4.72,2.69-5.23,4.44-.38,1.29,1.77,11.49,1.14,16.14-.7,5.23-4.71,9.03-5.19,11.3-.21,1,7.28,11.49,6.76,18.94-.36,5.19-4.8,8.97-5.33,12.64-.79,5.43,1.93,15.98.78,24.01-4.29,30.03-35.1,27.96-57.88,29.81-54.37,4.42-109.73,5.3-164.4,2.74-17.72-.83-35.27-.4-52.78-4.77-13.92-3.47-23.72-8.33-27.78-22.92-1.01-3.63-1.6-14.15-2.63-15.87-.46-.77-5.53-2.46-7.19-4.46-4.68-5.66-3.36-14.07.81-19.62,1.92-2.55,8.84-5.46,8.98-6.95.06-.63-.73-9.86-1.06-10.25-1.39-1.63-8.87.12-12.27-10.32-3.31-10.18,3.25-18.33,2.73-20.5-.34-1.4-8.13-4.54-8.2-12.42-.19-19.42,24.25-49.42,35.69-64.42.9-1.18,1.89-1.36,1.36-3.42C-.01,196.7-24.78,108.97,28.37,48.89,76.23-5.21,161.69-12.94,224.33,18.44c10.54-9.78,23.1-16.68,37.62-11.29,14.72,5.47,20.55,24.44,15.17,38.41-.88,2.28-5.61,7.77-4.96,8.83s6.27,6.43,7.2,6.66c1.98.49,4.41-1.14,6.58-1.19,16.89-.36,33.11,5.63,36.02,24.32.92,5.94-2.62,11.07-2.2,13.18.56,2.85,8.22,7.42,10.27,9.54Z"/>
      <path class="cls-1" d="M303.86,230.2c-17.61,2.8-35.71,2.85-53.58,2.38-2.94-.08-5.45-1.27-8.15-1.43-12.43-.76-30.76,11.87-44.54,15.75-17.11,4.82-52.82,10.88-62.2-9.03-1.51-3.2-1.94-9.82-4.41-10.66-10.41-.24-20.99-.48-31.35-1.53-5.53-.56-14.69-4.69-18.53-.72-6.17,6.37-15.47,19.91-20.25,27.69-4.36,7.1-15.46,27.85-15.25,35.45.3,10.74,29.1,7.17,36.23,7.45,32.44,1.28,64.74.91,97.33,1.31,51.87.63,111.61,5.27,162.97,1.44,3.02-.23,10.54-1.18,13.1-1.98,13.81-4.31,2.95-29.71-.13-39.13-23.17,7.13-38.93-10.08-51.24-26.98Z"/>
      <path class="cls-1" d="M340.4,380.25c-10.64,1.36-16.77-9.21-24.94-11.45-14.31-3.93-23.28,7.19-35.29,11.39-25.19,8.81-32.09-9.39-51.76-9.39-12.81,0-24.91,10.04-36.98,11.09-15.79,1.38-28.59-11.07-42.48-11.09-15.02-.02-24.46,13.23-42.51,11.1-12.89-1.52-16.78-15.4-30.17-13.8-4.36.52-7.93,4.51-12.83,4.29-3.92,29.25,18.97,32.66,41.82,35.37,55.65,6.59,119.21,2.83,175.21.14,16.56-.8,48.23.76,61.92-7.95,10.04-6.39,13.39-20.49,12.74-31.78-4.78,4.17-7.6,11.18-14.73,12.09Z"/>
      <path class="cls-2" d="M349.03,331.78c-6.77-.49-4.15,3.34-5.44,7.69-5.93,19.95-19.58,10.95-35.64,15.06-73.87-3.45-154.24,8.39-227.54,2.73-3.24-.25-7.23-.92-10.22-2.11-6.38-2.55-10.38-11.12-16.51-1.44-2.69,4.24-2.04,10.73,3.51,11.69,9.39,1.64,15.78-6.17,27.08-3.78,6.49,1.37,11.1,7.91,16.45,10.94,17.48,9.91,28.33-7.57,45.44-8.56,15.24-.88,20.34,6.33,32.88,9.7,19.28,5.18,33.23-11.22,53.55-9.7,13.46,1,24.11,13.91,38.17,12.31,17.28-1.96,26.12-21.53,47.78-13.33,6.71,2.54,18.4,14.99,25.27,8.9,3.1-2.75,4.71-10.48,6.94-14.28,2.24-3.81,6.51-6.05,7.11-10.78.65-5.1-3.22-14.65-8.84-15.05Z"/>
      <path class="cls-6" d="M310.51,320.27c-7.21-.37-21.17,10.42-30.34,11.95-18.61,3.1-28.54-12.5-43.54-12.12-12.27.31-25.84,13.61-39.86,15.05-20.27,2.08-29.59-16.36-42.33-16.36-13.98,0-21.82,19.35-42.73,11.27-6.19-2.39-14.73-10.82-20.37-11.21-8.13-.56-14.86,8.63-21.54,11.26-4.92,1.94-6.57-1-6.53,4.48.05,7.66,7.08,14.64,14.56,15.65,28.28,3.8,64.01-2.65,93.11.18,47.23-3.34,95.18-.29,142.48-2.74,4.74-.25,11.52-.96,16.31-1.54,5.77-.7,9.75-10.18,7.45-13.45-.29-.41-7.47-2.37-9.51-3.5-5.44-3.01-10.39-8.57-17.17-8.92Z"/>
      <path class="cls-4" d="M346.13,325.57c6.35-.86,9.71-3.58,10.42-10.11,1.92-17.72-6.76-10.72-18.46-10.26-85.32,3.41-180.62,1.05-265.84-2.81-4.03-.18-12.81-.7-16.17.28-7.21,2.08-9.27,20.58,1.04,21.72,14.24,1.57,20.6-12.04,32.98-12.47,11.89-.42,19.79,13.42,30.07,13.57,13.46.21,21.93-14.51,35.48-13.41,14.84,1.2,22.38,16.47,38.53,16.46,19.38-.01,28.33-21.19,53.06-13.43,8.24,2.58,17.53,10.43,26.39,10.71,17.52.54,26.08-17.47,45.49-9.97,11.17,4.31,11.95,11.78,27.03,9.73Z"/>
      <path class="cls-5" d="M316.38,230.06c-1.3.78-2.76,1.21-2.33,3.12,21.87,27.03,51.83,25.7,58.9-11.62h-29.46c-8.06,3.05-19.75,4.06-27.12,8.5Z"/>
      <path class="cls-3" d="M333.2,119.51c-3.05-3.26-11.65-11.97-15.05-13.77-3.66-1.94-10.42,6.06-15.01,8.32-8.7,4.29-18.51,5.59-28.14,4.75-4.85-.42-9.14-.66-7.41-6.04,1.19-3.7,4.74-.88,7.4-.81,12.58.35,26.81-.8,34.94-11.66,5-6.67,7.01-13.4,3.29-21.1-7.63-15.77-28.19-14.52-41.97-8-3.22,1.52-8.44,7.23-11.3,6.49-9.27-2.41,9.49-13.24,11.61-14.38C215.43-1.83,106.15-13.46,41.42,45.5c7.12.23,13.69-1.28,21.08-.54,58.2,5.82,74.7,42.1,51.77,93.96-14.8,33.46-42.06,48.96-77.92,34.96l-20.98-13.27c21.94,44.44,69.9,63.16,117.83,59.59-1.49-8.21,13.71-39.02,20.43-40.47,12.14-2.63-5.3,15.35-5.33,16.5,11.1,6.92,23.98,13.35,32.21,23.94,4.61,5.93,5.81,13.87,9,18.4.98,1.39,1.41,2.09,3.31,2.25,3.9.33,19.78-6.57,24.27-8.66,9.73-4.53,18.46-10.94,27.83-16.08,6.61.79-.14,8.86.64,9.6,18.35.41,36.51.36,54.79-1.37,1.12-1.08-6.39-9.76.71-9.64,3.7.06,7.65,9.04,8.91,12.39,3.84-1.88,7.53-4.05,11.59-5.51,11.93-4.31,27.03-6.5,39.71-6.89,4.23-.13,7.68.26,11.7,1.44v-22.61c0-18.39-26.88-60.2-39.76-73.97ZM168.25,113.32c-12.59-1.38-15.42-25.92-6.71-28.53,15.78-4.73,22.24,30.24,6.71,28.53ZM264.75,92.74c-.18-.12-.88-3.36-.75-4.25.78-5.17,18-11.73,23.33-12.16,3.89-.31,17.56.36,18.49,4.81,1.28,6.08-12.77,1.87-15.75,1.93-5.23.1-11.26,2.27-15.68,4.98-2.15,1.32-6.09,7.18-9.64,4.69Z"/>
      <path class="cls-5" d="M183.9,243.48c-2.2-19.57-20.8-34.39-38.42-40.52-19.36,34.31,6.34,47.61,38.42,40.52Z"/>
      <path class="cls-3" d="M237.37,24.88c5.98,3.62,12.43,7.9,17.79,12.36,4.84,4.03,10.98,15.82,15.37,5.83,5.31-12.07-.44-28.37-14.69-29.78-9-.89-16.22.99-23.11,6.76-1.07.9-1.59,1.89-.88,2.81.18.23,3.94,1.06,5.52,2.02Z"/>
      <path class="cls-5" d="M50.42,172.13c25.35,3.31,43.05-6.69,54.73-28.64,11.38-21.37,21.11-55.14,2.08-74.76-12.03-12.4-44.12-19.09-60.67-16.72C16.2,56.35,1.26,113.58,8.91,138.29c4.35,14.06,27.11,31.96,41.52,33.84ZM97.58,83.18c2.4,4.84-11.01,12.47-12.32,7.51-1.42-5.34,8.13-8.67,12.32-7.51ZM45.53,68.1c7.04-3.51,9,9.46,6.83,10.96-4.43,3.06-8.34-7.54-6.83-10.96ZM27.77,118.06c1.89,1.39,5,28.11,19.12,24.04.73-13.05,3.52-27.11,7.84-39.44.97-2.77,2.14-8.35,6.54-7.14,2.01.55,1.83,2.42,1.51,4.15-1.29,6.95-5.02,14.88-6.73,22.12-.83,3.53-4.19,18.64-3.57,20.81,1.43,5.03,12.18.9,15.42-.74,2.65-1.35,10.63-9.17,13.25-6.6,4.37,4.28-11.24,12.87-14.12,13.96-16.46,6.24-37.25-2.32-42.73-19.44-1.01-3.15-4.05-17.24,3.48-11.7Z"/>
    </g>
  </g>
</svg>