<?xml version="1.0" encoding="UTF-8"?>
<svg id="Layer_2" data-name="Layer 2" xmlns="http://www.w3.org/2000/svg" viewBox="0 0 314.55 398.34">
  <defs>
    <style>
      .cls-1 {
        fill: #ffddc7;
      }

      .cls-2 {
        fill: #dda883;
      }

      .cls-3 {
        fill: #b67e6d;
      }
    </style>
  </defs>
  <g id="Layer_1-2" data-name="Layer 1">
    <g>
      <path d="M260.65,102.09c4.53,14.88,5.67,32.66,4.32,48.18-.31,3.63-4.77,18.44-4.19,19.24.21.28,2.93,1.01,4.23,2.27,51.63,49.65,70.52,125.49,19.41,183.55-28.17,32.01-94.5,56.95-133.54,34.22-4.93-2.87-7.29-7.66-9.67-9.03-1.21-.69-24.79-7.64-26.67-7.91-7.19-1-22.92,3.81-31.55,4.28-30.12,1.64-68.94-7-63.92-45.22,2.05-15.58,17.33-29.8,29.97-37.73-8.29-25.98-2.82-51.87,4.54-77.34-19.84-7.43-36.54-19.77-45.96-39.16C-2.38,156.81-.37,135.86,1.66,113.63c2.69-12.08,8.24-30.19,20.69-49.08,1.66-2.52,7.16-10.86,14.58-18.6C69.93,11.52,121.93,1.95,167.43,10.43c3.82.71,19.36,5.55,20.41,5.44.48-.05,2.88-4.5,4.42-5.94,3.91-3.69,12.42-8.87,17.68-9.7,15.32-2.42,32.9,14.59,24,29.8-2.67,4.56-7.15,3.3-2.08,8.04,1.4,1.31,10.4,8.96,11.09,9.14,1.89.48,11.38-3.1,17.04-2.76,37.48,2.25,36.79,52.27.65,57.63Z"/>
      <g>
        <path class="cls-1" d="M154.25,314.34c-.06-1.21-1.35-7.54-1.65-7.8-.6-.49-5.05-.17-7.12-.78-21.29-6.31-11.29-37.61-6.71-52.93,3.44-11.49,8.16-13.28,3.17-26.99-6.36-17.47-10.74-10.22-23.72-6.5-11.66,3.34-17.39,1.28-24.18,13.23-9.14,16.12-6.95,37.91-10.97,55.21-1.41,6.07-5.71,6.77-7.35,10.02-1.23,2.44,1.89,18.89,2.95,22.97,7.12,27.46,30,47.65,58.26,50.37-2.09-12.57-.58-24.15,5.49-35.52,4.42-8.28,12.3-11.17,11.82-21.28Z"/>
        <path class="cls-2" d="M79.49,256.86c2.57-6.47,3.41-13.44,6-19.92,2-5,5.19-9.07,6.85-14-10.79.99-21.08-2.88-31.7-3.73-5.07,12.21-6.18,25.39-8.57,38.25,9.21-2.76,18.46-.66,27.43-.6Z"/>
        <path class="cls-2" d="M69.33,300.62c-4.03,1.53-12.17-1.91-14.83-1.23-6.87,1.76-1.33,5.26.21,7.94,11.48,19.89,16.25,39.36,17.55,62.3,10.19.95,20.09-1.9,30.16-2.83-19.61-16.09-34.99-39.74-33.08-66.18Z"/>
        <path class="cls-3" d="M71.29,291.8c6.53-3.52,9.24-22.77,6.04-27.24-3.17-4.43-20.13-1.91-25.26-1.34-.33,12.58-.09,38.97,19.22,28.58Z"/>
        <path class="cls-2" d="M208.42,24.11c6.65,3.2,12.42,10.98,18.53,3.25,7.84-9.91-6.16-22.2-17.04-19.94-3.39.7-16.68,10.51-13.99,12.64,4.07.47,8.83,2.29,12.5,4.05Z"/>
        <path class="cls-3" d="M28.56,168.02c19.97,12.47,52.51,16.11,68.1-4.79,10.9-14.61,17.8-53.73,13.39-70.95-6.31-24.6-46.59-25.4-66.94-22.9-18.4,2.26-25.75,14.78-30.62,31.24-3.1,10.48-7.5,34.69-4.38,44.69,1.93,6.19,14.78,19.16,20.46,22.71ZM95.21,90.58c2.64,3.68-9.52,11.92-12.94,10.06-3.11-5.95,10.48-13.48,12.94-10.06ZM42.72,79.07c6.1-1.68,8.4,12.05,4.29,12.93-4.06.87-9.07-11.61-4.29-12.93ZM24.67,131.6c.33-2.02,1.81-4.89,4.4-2.94,2.88,2.17,1.72,12.75,8.62,15.84,1.97.88,11.09,1.2,11.48.73.57-.68,1.27-14.9,1.81-17.62,1.3-6.62,4.02-22.07,12.58-19.78-.48,7.29-4.26,13.51-5.6,21.01-.75,4.2-2.63,19.31-.9,22.18,3.14,5.2,15.02.23,18.77-2.87,1.83-1.52,8.8-12.57,9.42-3.59.7,10.16-22.93,19.51-31.75,12.9-1.95-1.46-2.65-4.79-3.85-5.07-2.92-.68-7.18.49-10.95-.26-8.31-1.67-15.4-12.16-14.03-20.52Z"/>
        <path class="cls-3" d="M65,369.69c.72-23.1-7.06-45.52-19.41-64.74-33.19,24.93-22.74,62.14,19.41,64.74Z"/>
        <path class="cls-2" d="M272.2,189.08c-1.82-2.03-10.89-11.53-12.28-12.18-2.85-1.33-3.08,6.23-6.45,7.91-1.87.94-3.76.82-5.76.7.63-8.59,6.07-15.36,8.21-24.15,4.84-19.88,3.64-38.12-1.03-57.86-.5-.65-14.38,4.3-15.81-.73-1.85-6.53,7.16-4.62,10.63-5.18,3.29-.53,7.53-1.31,10.66-2.29,39.24-12.3,16-59.54-17.98-38.12-5.12,3.23-11.4,13.38-16.89,11.73-1.09-.33-2.55-2.12-2.25-3.51.42-1.89,11.19-9.91,12.63-12.94.21-3.35-13.66-12.26-17.06-14.31C159.04,2.2,75.43,4.96,31.92,63.95c6.42.71,13-1.86,19.35-2.23,19.36-1.15,51.11,2.04,61.8,20.33,11.47,19.61,2.06,69.37-12.13,86.9-21.25,26.24-70.73,17.02-89.89-7.88-1.83,3.78,1.06,9.4,2.83,13,18.02,36.8,72.19,50.78,108.65,36.61,7.21-2.8,14.5-9.15,20.2-11.46,3.03-1.22,7.94-.85,7.15,2.82-.52,2.4-9.94,7.03-9.95,8.65,13.28,14.17,11.88,32.98,4.2,49.63,18.18-1.48,35.26,8.25,48.19,20.14,4.04-2.11,9.37-12.93,12.93-12.99,7.61-.13.95,8.68-1.39,11.59-9.35,11.6-24.13,20.56-38.11,25.23-1.68.56-5.43.43-5.75.69-.45.36-.38,9.86.67,11.46,4.61-6.25,41.89-20.59,45.2-15.7.39.57.29,5.4.07,5.56-.81.58-15.81,3.14-19.42,4.33-3.08,1.02-15.72,5.77-16.42,8.14-.75,2.57,5.85,10.59,7.4,13.93,8.01,17.31,9.32,38.43,6.92,57.11h20.86c2.61,0,12.82-2.98,16.21-3.94,90.62-25.68,111.95-128.73,50.73-196.81ZM151.67,123.41c-10.8,1.45-22.27-11.28-20.51-21.99.63-3.85,3.68-6.17,6.82-3.24,3.05,2.84,3.44,9.83,6.81,12.59,3.86,3.16,10.43,2.94,15.17,2.81,1.59,6.85-1.79,8.96-8.29,9.83ZM231.95,79.68c-2.05-6.79,12.51-15.97,18.55-17.25,4.73-1,16.53-1.49,20.19,1.55,1.5,1.25,2.24,3.84,1.47,4.99-1.57,2.34-10.88-1.44-13.67-1.45-3.84-.02-9.79,2.09-12.96,4.32-2.74,1.93-11.51,14.72-13.59,7.83ZM269.99,228.69c-1.71.33-14.85-14.07-15.08-15.12-.3-1.38,1.15-3.18,2.23-3.51,1.54-.47,3.58-.25,4.99.62,1.42.88,14.43,16.74,7.86,18.01ZM283.78,276.06c-.65-.86-1.05-18.41-1.53-21.47,7.72.41,8.43,15.43,7.02,20.69-.79,2.95-4.97,1.46-5.49.78Z"/>
        <path class="cls-3" d="M139.98,277.05c-1.58,15.71-.02,23.64,17.82,22.13,6.99-.59,15.79-4.78,21.83-8.38,10.68-6.37,9.26-6.17-.51-12.94-7.9-5.47-26.12-14.74-35.52-11.59-2.44.82-3.35,8.19-3.61,10.77Z"/>
        <path class="cls-3" d="M162.28,323.74c-4.43.99-14.62,16.28-16.39,21.1-9.73,26.48,5.27,42.28,31.32,45.01,2.29-12.23,2.2-25.53-.36-37.76-1.01-4.83-8.91-29.6-14.56-28.34Z"/>
      </g>
    </g>
  </g>
</svg>