<?xml version="1.0" encoding="UTF-8"?>
<svg id="Layer_2" data-name="Layer 2" xmlns="http://www.w3.org/2000/svg" viewBox="0 0 335.16 432.9">
  <defs>
    <style>
      .cls-1 {
        fill: #ffddc7;
      }

      .cls-2 {
        fill: #dda883;
      }

      .cls-3 {
        fill: #b67e6d;
      }

      .cls-4 {
        fill: #ffdfab;
      }
    </style>
  </defs>
  <g id="Layer_1-2" data-name="Layer 1">
    <g>
      <path d="M305.65,44.91c-.8,1.29-6.09,6.66-5.95,7.49,7.73,7.86,14.75,16.9,20.28,26.46,16.39,28.3,20.64,61.99,7.1,92.38-7.03,15.77-19.67,31.15-34.4,40.18,13.37,18.7,25.19,39.23,33.2,60.88,12.18,32.92,13.36,67.22-2.99,98.97-26.21,50.88-79.27,67.29-133.66,59.99-3.8-.51-8.72-2.4-12.61-2.73-23.75-2.02-47.1,1.25-71.71-2.17-13.38-1.86-28.32-7.42-40.56-8.93-14.26-1.77-25.04-1.63-38.76-7.94-41.54-19.1-27.26-66.5,5.38-85.48.49-1-3.17-7.78-3.69-9.61-6.36-22.58,5.58-42.03,18.09-59.64,2.47-3.48,5.42-6.72,8.18-9.99-6.08-7.78-13.22-14.81-18.33-23.35-21.38-35.72-22.06-79.98-5.32-117.69-9.24-.19-19.8-10.53-21.44-19.34-5.68-30.36,30.48-46.4,52.44-27.37,13.42-16.31,32.07-28.54,51.12-37.42C151.33,1.28,189.79-2.46,231.49,10.53c6.93,2.16,13.42,5.6,20.44,7.52,1.43.05,1.5-1.9,2.44-3,9.48-11.12,19.09-17.08,34.42-14.42,20.09,3.48,26.85,28.2,16.85,44.28Z"/>
      <path class="cls-4" d="M118.64,268.36c-2.06-5.25-11.35-26.32-16.22-27.74-3.46-1.01-6.98,2.45-9.06,4.96-4.05,4.88-7.06,11.35-10.44,16.72,12.49,7.59,26.04,17.41,25.06,33.79,1.86.38,2.11-1.72,3.03-2.54,3.74-3.33,7.65-6.57,11.65-9.6.75-.8.75-1.75.65-2.77-.25-2.47-3.56-9.99-4.67-12.82Z"/>
      <path class="cls-3" d="M142.11,280.38c-1.04-.47-1.12-.21-2.01.04-2.47.71-11.27,6.66-13.82,8.49-2.56,1.84-7.47,5.92-9.62,8.17-10.75,11.23-10.28,29.02,5.82,34.36,9.96,3.3,29.14,2.36,39.36.04,3.13-.71,8.37-1.28,8.13-4.96-.72-11.21-9.01-26.26-16.32-34.62-1.31-1.49-10.69-11.14-11.53-11.52Z"/>
      <path class="cls-3" d="M54.41,309.95c4.86,1.93,9.13,5.29,13.95,7.3,24.3,10.18,43.28-15.87,27.37-36.08-1.51-1.92-7.04-8.27-9.12-8.6-2.89-.46-12.09,6.08-14.54,8.17-8.35,7.11-16.66,18.08-17.66,29.21Z"/>
      <path class="cls-2" d="M32.73,97.83c1.55-1.06,8.58-18.52,11.75-21.05.35-1.34-4.97-3.37-6.02-3.55-3.99-.7-12.18,2.17-13.32-2.06-1.38-5.1,9.39-5.44,12.73-5.02,4.3.54,7.42,3.01,11.16,4.78,2.48-2.25,4.03-5.17,5.98-7.82.47-.63,1.34-.45,1.38-.52.77-1.23-2.76-3.05-3.71-3.58-9.33-5.28-20.75-4.24-29.46,1.79-9.24,6.39-10.99,22.22-3.74,30.72,2.01,2.35,10.6,8.13,13.25,6.31Z"/>
      <path class="cls-2" d="M57.66,342.63c-.15-.78-8.84-10.63-10.02-11.98-1.13-1.29-2.01-2.82-3.43-3.89-.52-.11-.48.73-.34,1.03.8,1.77,4.48,5.41,5.93,8.01,2.48,4.44,3.72,9.27,5.56,13.95,1.24-1.63,2.68-5.19,2.3-7.13Z"/>
      <path class="cls-2" d="M71.81,257.39c-.54-.75-11.56-7.8-12.4-7.88-1.19-.1-2.57,1.89-3.3,2.74-13.73,16.05-31.3,45.07-20.19,66.07,1.03,1.95,4.97,5.88,3.77,1.82-.07-.23-1.12-.37-1.39-.85-1.44-2.58-2.47-5.26-3.59-7.99-.25-.62-1.18-.59-1.29-1.06-1.03-4.31,1.4-10.36,6.51-9.94,3.73.31,6.16,4.14,9.49,5.55,3.86-16.45,16.5-29.06,30.66-37.29-.01-1-7.44-3.12-8.24-7.14-.3-1.5.68-3.06-.03-4.04Z"/>
      <path class="cls-4" d="M169.3,338.8c.5-.96.88-1.86.71-2.98-11.22,3.08-22.77,4.99-34.49,4.17-12.36-.87-25.77-4.11-30.66-16.74l-2.45-9.73c-7.33,11.58-20.69,15.1-33.59,10.92-10.28-3.33-19.51-10.69-28.45-16.5-2.44,3,22.39,29.4,25.11,33.83-3.39,9.01-7.31,17.94-9.61,27.32-.86,3.49-2.57,10.63-2.92,13.81-1.9,17.51,2.79,17.35,17.53,13.35,12.24-3.32,23.2-9.75,34.96-14.27,1.86.21,13,10.66,15.84,12.66,9.48,6.72,20.16,11.74,31.3,15.05-.96-3.97-3.2-7.37-4.37-11.3-5.05-16.87-1.07-35.94,10.3-49.34,2.04-2.4,10.02-8.78,10.79-10.26Z"/>
      <path class="cls-2" d="M293.51,46.42c2.11.97,5.18-3.51,6.16-5.06,9.59-15.23,1.23-34.77-17.79-34.56-4.77.05-9.61,2.02-13.53,4.63-1.21.81-11.04,9.42-9.81,10.75,12.83,5.47,25.05,14.38,34.98,24.25Z"/>
      <path class="cls-1" d="M153.67,417.33c-15.6-2.73-31.15-13.18-43.18-22.66-2.11-1.66-4.5-2.92-6.33-4.99-12.21,5.92-24.63,11.67-38,14.45.94,2.73.9,4.93,0,7.65,1.22-.02,2.44-.07,3.65.19,29.31,6.14,55.37,11.55,85.94,10.31,3.13-.13,6.17-1.19,9.38-.74-2.97-5.42-7.1-3.45-11.46-4.21Z"/>
      <path class="cls-3" d="M203.35,358.59c-.43-2.9-3.62-20.79-5.76-21.14-1.74-.29-11.97,2.16-14.32,2.92-31.85,10.16-41.6,53.98-15.35,75.27,6.35,5.15,13.73,6.3,21.33,8.72,8.42-3.57,11.33-15.3,13.19-23.71,3.15-14.28,3.08-27.64.92-42.06Z"/>
      <path class="cls-2" d="M305.59,244.51c-1.91-3.52-16.51-27.93-18.25-28.5-.6-.2-1.21-.15-1.8.06-4.6,2.68-9.33,5.37-14.28,7.37-5.29,2.14-14.05,5.17-19.51,6.27-1.21.24-7.23.98-8.05.75-1.88-.53-2.56-3.87-1.74-5.32.9-1.58,12.02-3.07,14.63-3.83,75.57-22.13,93.46-101.01,42.6-159.32C263.31,20.88,200.92.29,147.54,14c-40.58,10.42-74.02,33.72-97.99,67.89-4.97,7.09-16.38,27.39-17.55,35.43-.06.41-.19,1.15.35,1.05,20.49-21.17,49.42-35.08,79.27-26.29,49.33,14.54,50.42,94.37,15.19,124.23-27.31,23.14-67.81,14.55-90.97-10.11-.53-.1-.44.67-.36,1.05.5,2.29,4.43,9.23,5.85,11.58,9.14,15.1,23.75,26.05,38.43,35.39,5.64-8.17,15.15-26.84,27.46-18.33,5.46,3.77,11.67,17.39,14.6,23.74,1.2,2.61,7.18,18.78,8.19,19.01,4.51-1.89,33.4-19.06,35.82-17.76,2.38,1.29,2.38,4.28.36,5.98-1.85,1.56-20.33,9.07-19.87,10.09,3.24,3.76,7.41,6.51,10.81,10.1,9.97,10.55,16.91,25.23,18.46,39.74,1.12,1.18,14.91-7.48,16.89-9.09,3.97-3.23,8.19-8.75,10.92-13.1,1.77-2.82,1.51-7,6.55-5.71.4.1,1.69,2.2,1.75,2.58.26,1.77-7.53,13.29-9.22,15.27-6.67,7.81-15.66,11.52-23.4,17.7l17.13-4.12c4.37.43,22.15-1.54,24.37,2.02.81,1.3-.28,4.54-1.42,4.89-3.23.98-11.16-.73-14.99,0,8.2,24.22,10.24,53.84.13,77.84-1.6,3.79-4.19,6.9-5.7,10.67,9.91-.53,20.51.71,30.34.03,36.06-2.51,66.94-22.25,84.78-53.23,25.84-44.87,14.97-85.38-8.12-128.03ZM214.44,119.92c-6.69,14.92-28.62,16.81-33.76-.72-.89-3.02-3.02-10.66.99-11.85,8.33-2.48,4.82,12.81,12.36,13.83,9.95,1.35,9.42-4.12,14.57-8.85,5.7-5.24,8.64,1.34,5.84,7.58Z"/>
      <path class="cls-3" d="M54.7,404.79c-2.22-.4-5.32-3.51-6.35-5.5-4.48-8.65-1.4-15.02.21-23.57,2.14-11.36,3.81-14.25.53-25.95-1.66-5.94-5.31-15.17-10.06-19.21-2.29-1.95-6.33,1.2-8.63,2.62-21.29,13.12-34.29,45.4-12,64,8.97,7.49,21.06,9.91,32.04,11.87,3.16.56,6.38,2.57,10.18,1.03.71-.44.14-5.05-.04-5.25-.23-.25-4.64.19-5.88-.04Z"/>
      <path class="cls-3" d="M142.36,177.48c9.28-41.85-7.47-85.96-56.82-81.22-17.53,1.69-38.87,14.61-50.02,28.04-14.9,17.94-14.65,58.08,1.36,75.27,34.87,37.44,93.41,32.32,105.48-22.1ZM106.24,130.2c.3-.63,10.11-8.59,10.78-8.77,3.45-.96,4.31,3.14,2.84,5.69-.32.56-9.22,8.09-9.81,8.36-1.04.47-3.54-.42-4-1.22-.5-.87-.27-3.11.19-4.04ZM60.39,115c5.16-1.55,11.83,12.9,2.79,10.19-2.39-.72-7.01-8.93-2.79-10.19ZM49.08,170.02c3.89.21,4.23,6.16,5.91,9.35,4.08,7.72,12.86,13.21,21.62,13.57-.24-1.87-1.2-3.24-1.39-5.22-.85-8.64-.36-24.16,1.56-32.59.42-1.84,1.77-7.1,3.77-7.4.4-.06,2.75,1.24,2.88,1.46,1.14,1.94-1.81,16.62-1.97,20.38-.16,3.65.27,22.04,1.81,24.05,3.81,4.96,17.92.86,22.09-2.74,2.13-1.84,4.1-8.48,7.29-7.17,6.35,2.61-3.66,12.83-7.09,14.85-14.65,8.61-45.55.45-54.74-14.3-1.58-2.53-8.43-14.58-1.74-14.22Z"/>
    </g>
  </g>
</svg>