<?xml version="1.0" encoding="UTF-8"?>
<svg id="Layer_2" data-name="Layer 2" xmlns="http://www.w3.org/2000/svg" viewBox="0 0 432.19 393.28">
  <defs>
    <style>
      .cls-1 {
        fill: #f4b2bf;
      }

      .cls-2 {
        fill: #ffddc7;
      }

      .cls-3 {
        fill: #dda883;
      }

      .cls-4 {
        fill: #b67e6d;
      }
    </style>
  </defs>
  <g id="Layer_1-2" data-name="Layer 1">
    <g>
      <path d="M241.91,192.85l2.49,20.13c32.9-4.5,40.06,21.05,20.82,44.13-4.97,5.97-10.41,8.72-15.68,13.31-8.31,7.24,5.84,2.91,10.27,1.45,23.25-7.64,34.1-34.49,59.49-31.07,4.89.66,12.49,6.47,15.44,5.27l34.49-24.85c1.8-5.38,4.03-8.33,8.16-12.07,1.24-1.12,4.79-1.18,3.11-3.72-.15-.22-3.34.43-3.46-3.36-.14-4.41,3.56-6.56,7.66-5.28,3.51,1.1,3.75,6.84,10.33-.2,1.8-1.93-2.26-.97-3.04-3.29-2.97-8.79,9.89-11.39,9.98-1.75,4.6-2.04,8.24-6.98,13.84-4.41,1.88.86,15.68,18.15,16.18,20.44,1.66,7.6-7.56,12.04-6.07,14.18.15.21,2.95.07,3.62,2.05,1.99,5.83-2.58,8.16-7.84,6.85-1.37-.34-1.74-3.81-2.74-3.8-.31,0-4.18,3.9-4.32,4.56-.33,1.65,5.4,5.54.63,9.39-5.76,4.64-7.92-3.88-8.92-3.86-.5,0-5.46,4.56-8.41,5.44-3.42,1.01-6.57.6-9.93,1.41l-33.41,24.63c-1.51,2.76,4.06,9.78,5.46,13.54,3.77,10.14,3.83,18.29-1.99,27.7-7.76,12.52-25.74,13.78-34.28,24.97-5.87,7.69-7.77,19.18-12.82,27.52-16.25,26.87-50.38,30.55-75.83,14.5-3.72-2.35-14.72-13.55-16.54-13.61-1.35-.04-20.87,7.32-23.01,8.52-11.61,6.54-15.06,12.96-30.6,17.3-51.13,14.28-116.83-6.71-146.01-51.93C-3.65,301.79-3.02,271.38,5.31,231.63c7.26-34.63,20.5-67.52,31.22-101.1-18.11-7-28.65-22.17-18.29-41.01,6.03-10.97,17.92-15.25,30.05-13.82,2.85.34,6.83,2.43,9.04,2.36,3.26-.1,9.14-13.53,12.98-15.9-1.69-4.72-5.03-8.88-5.84-13.98-3.49-21.91,19.64-39.37,39.2-26.61,1.83,1.2,5.58,5.73,6.48,5.78,1.11.07,16.32-8.89,19.59-10.37,40.9-18.42,95.63-26.54,134.73.07,67.1,45.66,52.93,148.94-22.56,175.8Z"/>
      <path class="cls-4" d="M245.66,218.01l2.54,45.38c21.67-11.6,35-48.45-2.54-45.38Z"/>
      <path class="cls-3" d="M148.12,334.12c3.66-7.4,8.72-13.98,13.11-20.93.03-1.6-19.83-4.53-22.39-5.38-2.01-.67-2.36-1.57-1.56-3.45,1.78-4.18,16.49.15,20.17,1.24,8.4,2.5,16.12,6.93,23.93,10.73-.57-10.17.62-20.14,1.27-30.25-4.96,2.38-32.76-.42-33.98-4.47-2.06-6.8,8.27-2.33,8.77-3.1.84-1.28,1.12-11.51,1.6-14.16,2.26-12.43,6.9-24.47,14.78-34.38.26-.56-6.12-2.05-7.69-3.73-1.14-1.23-.14-4.12.2-4.38,2.84-2.19,26.58,6.28,31.36,7.43,3.75-11.45,18.9-21.05,29.98-24.86,2.78-.95,8.81-1.25,9.17-1.55.38-.32-.24-6.02,0-7.56-7.42,1.6-16.86,6.45-24.57,5.04-5.03-.92-3.48-4.26.6-5.71,10.13-3.59,20.21-4.39,31.14-9.2,31.33-13.8,58.08-47.3,57.13-82.8-.04-1.43.79-3.47-1.26-3.13-6.38,16.98-29.68,29.96-47.28,31.5-61.59,5.39-92.91-105.22-21.42-118.49,1.85-.34,3.88,0,4.41-2.52-12.98-1.81-25.22-4.56-38.5-3.85-44.81,2.38-96.15,27.33-124.07,62.48-3.18,4-5.27,8.86-8.84,12.59,5.17,3.34,13.37,7.08,12.59,14.48-5.65,1.27-7.18-3.66-10.73-6.27-8.25-6.08-20.48-9.71-30.5-6.6-13.39,4.15-18.65,21.23-10.44,32.42,7.9,10.77,19.85,11.13,32.14,10.73,2.31-.08,10.09-3.27,8.18,3.12-1.02,3.39-19.25,4.38-22.66,1.89-20.23,69.11-65.06,154.78-6.35,217.49,17.32,18.5,48.51,34.32,73.77,37.15,8.48.95,18.44-.7,27.1,0-3.34-16.47,3.51-36.71,10.85-51.55ZM145.42,93.22c.57-1.11,15.18-13.16,16.72-13.58,12.87-3.59,9.26,12.2-3.09,17.08-4.27,1.68-17.97,5.01-13.62-3.49ZM37.16,235.71c-.59,3.86-2.53,8.06-3.12,12.05-.79,5.31,2.51,14.09-5.16,13.11-.35-8.97-.19-17.84,3.41-26.21,2.66-6.18,5.8-5.05,4.87,1.04ZM44.01,310.03c-.9-.62-5.01-20.11-3.79-21.42,9.18-.15,4.67,13.96,8.65,19.57-.14,1.52-3.89,2.52-4.86,1.85ZM55.6,181.07c-1.01,3.29-4.4,16.3-5.23,17.47-.9,1.27-2.19,2.15-3.84,1.82-.59-6.67,1.06-14.38,4.35-20.22,3-5.34,6.49-4.81,4.72.93ZM64.14,249.52h-5.01c-.7-.69,2.94-17.06,4.01-19.3.98-2.06,3.89-3.09,4.8-2.12,1.25,1.33-5.13,17.8-3.8,21.42ZM69.2,108.34c-9.12-2.23-13.24-10.37-23.29-11.35-3.25-.32-15.77,2.45-14.51-3.11,1.16-5.11,17.55-3.07,21.76-1.63,3.13,1.07,16.68,9.53,17.1,11.86.24,1.35-1.26,2.78-1.06,4.24Z"/>
      <path class="cls-4" d="M165.21,316.56c-.65.46-7.77,11.48-8.79,13.26-6.12,10.67-11.5,24.56-13.75,36.67-1.28,6.88-2.06,12.21-.31,19.14,17.95-.55,49.91-8.46,52.79-29.67,1.04-7.67-.59-15.07-4.69-21.58-2.92-4.63-20-21.5-25.25-17.81Z"/>
      <path class="cls-4" d="M178.21,231.86c-2.18,2.32-9.13,16.29-10.41,19.84-3.19,8.88-4.08,18.78-5.32,28.08h22.06c.75,0,11-4.34,12.4-5.24,12.27-7.88,15.94-25.25,4-35.12-3.45-2.85-19.41-11.08-22.73-7.56Z"/>
      <path class="cls-4" d="M259.55,124.12c16.18-4.12,32.14-15.3,38.04-31.29,3.31-8.98,1.82-13.49-.86-22.32-8.87-29.15-34.58-57.95-67.79-52.64-57.7,9.24-32.73,122.37,30.61,106.25ZM224.23,56.02c-.83,3.93-9.33,1.14-11.33.1-1.75-.91-4.25-2.57-4.23-4.85,0-.71.31-1.21.82-1.56,3.32-2.2,15.53,2.54,14.73,6.3ZM246.9,41.49c.68-1.96,4.78-7.4,7.42-4.87.02.02.05.05.07.07,3.15,3.22-2.72,12.25-6.82,11.15-2.51-.67-1.23-4.75-.67-6.35ZM229.28,99.53c4.61.12,23.47,5.29,25.16-.75.5-1.79-7.1-18.33-8.55-21.54-2.01-4.45-5.38-9.03-7.18-13.01-1.69-3.76,2.37-4.97,5.76-1.96,6.18,5.48,13.2,32.11,15.07,33.48,1.89,1.38,9.49-5.69,10.61-7.65,1.94-3.38,2.82-13.22,3.24-13.79.46-.63,4.15-.15,4.85,2.08,5,16.05-20.17,31.56-33.34,31.86-2.08.05-14.79-2.88-15.46-3.84-.66-.96.05-3.46-.17-4.87Z"/>
      <path class="cls-3" d="M76.14,55.41c5.44-4.47,10.7-10.43,16.41-15.11,2.13-1.75,11.38-7.17,11.75-7.76.45-.71.45-2.71,0-3.43-.74-1.17-12.14-6.28-14.27-6.31-15.47-.17-25.82,20.98-16.4,32.6,1.5,1.85,1.12,1.16,2.52.01Z"/>
      <path class="cls-2" d="M421.39,202.99c-1.49-2.06-8.25-10.24-9.97-10.22-7.71,6.35-30.19,17.91-34.53,26.03-1.26,2.35-.95,5.29-1.71,6.48-1.03,1.62-27.33,18.79-31.61,21.96-12.55,9.27-24.83,18.93-37.44,28.11-2.66,2.33,2.8,4.15,4.33,5.81,1.71,1.86,3.97,4.92,4.55,7.44l1.83-.03,67.02-50.22c11.41-1.23,16.86-3.42,25.69-10.87,2.08-1.75,15.95-15.45,16.2-16.59.35-1.62-3.18-6.3-4.35-7.92Z"/>
      <path class="cls-2" d="M222.71,277.63c4.2-1.11,16.49-1.33,18.01-3.71,2.02-3.19,1.4-24.69,1.17-30.06-1.91-5-1.54-33.83-3.87-35.83-4.49-3.86-37.1,14.6-36.06,24.52.21,1.99,4.92,4.12,6.42,5.74,7.58,8.2,7.69,22.66,1.8,31.84-5.41,8.42-14.76,11.13-22.31,16.77-.56,9.56-2.42,19.06-1.31,28.68,1.02,8.78,4.51,8.37,8.49,14.2,6.68,9.79,8.86,22.14,3.98,33.19l15.12-5.04c-18.91-20.22-24.18-71.63,8.56-80.3Z"/>
      <path class="cls-1" d="M322.47,291.69c-1.27.83-4.59,1.88-4.77,2.14-.8,1.1.08,8.95-.28,11.7-.92,6.88-6.22,12.51-12.23,15.5-26.97,13.42-50.04-20.12-27.89-40.5,7.79-7.17,14.11-3.83,21-6.73,1.99-.84,25.16-18.3,27.41-20.49,1.23-1.2,2.36-1.68,1.9-3.76-23.5-12.01-34.73,11.03-51.77,21.95-19.01,12.18-31.49,6.74-50.39,11.37-9.56,2.34-15.66,10.26-18.49,19.33-12.93,41.56,38.07,92.54,79.94,73.64,25.92-11.7,20.66-38.14,39.05-51.71,7.75-5.73,18.48-8.05,25.02-15.32,10.22-11.36,5.75-24.69-2.61-35.39-2.87.01-21.37,15.36-25.86,18.28ZM268.89,344.16l-22.73-31.56c-2.64-3.12,7.15-10.58,9.2-11.2,1.83-.56,3.63-.47,4.79,1.09,3.86,9.75,18.9,23.73,21.54,32.74,1.6,5.48-8.27,12.71-12.8,8.93Z"/>
      <circle class="cls-4" cx="293.37" cy="299.4" r="18.5"/>
      <path class="cls-2" d="M256.88,308.85l-3.65,1.2c5.41,7.72,11.03,18.12,17.11,25.11.79.9,3.11,3.91,4.31,2.61,1.29-1.39-1.13-3.93-1.85-5.07-5.07-8.08-11.84-15.12-15.92-23.84Z"/>
    </g>
  </g>
</svg>