<?xml version="1.0" encoding="UTF-8"?>
<svg id="Layer_2" data-name="Layer 2" xmlns="http://www.w3.org/2000/svg" viewBox="0 0 356.65 390.42">
  <defs>
    <style>
      .cls-1 {
        fill: #f4b2bf;
      }

      .cls-2 {
        fill: #ffddc7;
      }

      .cls-3 {
        fill: #dda883;
      }

      .cls-4 {
        fill: #b67e6d;
      }
    </style>
  </defs>
  <g id="Layer_1-2" data-name="Layer 1">
    <g>
      <path d="M292.19,108.3c-5.04-4.7-11.17-6.7-14.06-13.52-5.2-12.27,2.62-12.16,4.71-22.1,4.16-19.73-7.22-37.29-28.61-33.63-3.64.63-9.96,5.3-12.17,4.18-1.11-.57-2.89-3.07-4.62-4.24-2.18-1.5-10.61-5.66-11.1-6.45-1.72-2.76.83-7.79.57-11.75-2.03-30.96-44.36-25.08-45.05,2.91-19.24,1.01-38.15,3.58-55.96,11.08C72.84,57.15,25.44,120.33,49.69,179.11c3.36,8.14,8.6,12.9,13.15,20.06C3.96,216.32-16.54,286.21,14.2,337.44c30.64,51.07,98.53,48.82,143.87,19.67-.31,29.13,40.18,36.44,61.05,25.34,13.7-7.3,12.14-28.33,14.34-41.43,5.43-2.5,11.59-1.15,17.37-1.46.02,10.74-2.31,19.15.85,29.86,6.24,21.21,35.74,24.87,53.49,17.62,19.11-7.82,20.89-26.25,15.77-44.26-1.95-6.86-7.53-15.03-5.96-22.36.8-3.74,11.33-11.43,14.84-15.28,56.28-61.79,14.5-148.44-37.61-196.83ZM85.09,268.36c6.11-.98,24.31,7.74,25.39,14.22,1.09,6.53-6.63,17.2-12.11,20.45-3.88,2.32-15.64,4.31-19.28,2.1-1.67-1.02-5.79-11.43-6.13-13.91-1.37-9.96.54-21,12.12-22.85Z"/>
      <path class="cls-4" d="M69.1,300.71c.04-3.82-2.1-6.78-2.51-10.63-2.27-21.1,13.53-33.35,33.06-24.3,1.99.92,9.86,6.99,10.81,6.1-7.02-26.87-42.6-24.27-49.26,1.5-2.48,9.57-1.43,21.92,7.9,27.34Z"/>
      <path class="cls-2" d="M150.57,212.35c-1.84,1.48-1.14,1.13-.01,2.5,5.52,6.71,12.51,12.63,17.34,20.26,1.82,2.87,2.89,6.28,4.62,9.22.96,1.62-.24,3.16,3.1,2.47-1.94-12.03-7.17-27.36-15.7-36.35-1.88-1.98-7.43.34-9.35,1.89Z"/>
      <path class="cls-4" d="M132.16,119.2c-6.03-17.08-37.28-25.08-53.29-23.68-10.16.89-16.82,4.45-21.28,13.82-5.98,12.55-9.95,35.37-7.04,48.86,1.3,5.98,17.08,13.65,22.71,16.16,19.72,8.71,34.29,12.56,49-6.6,8.61-11.23,14.6-35.22,9.9-48.55ZM71.62,105.19c1.41.2,3.8-.5,4.81.2.86.6,3.59,8.92,2.7,9.82-6.78,1.17-7.93-4.37-7.51-10.01ZM98.31,170.09c-3.66.83-8.86.7-12.12-1.14-1.48-.83-2.67-3.04-4.18-3.45-2.24-.62-4.47.96-6.94.81-8.55-.49-17.13-9.61-13.51-17.81,2.62-5.95,7.79,9.28,9.56,10.44,2.36,1.56,9.02,1.93,10.35-.03,1.56-2.28-1.24-28.38,5.93-29.86,6.71-1.38.91,14.63.5,18.12-.28,2.39-1.04,15.77.11,16.81.81.72,7.04.08,8.73-.45,4.47-1.38,5.2-8.05,9.31-6.94,6.49,1.71-3.09,12.47-7.75,13.51ZM109.86,126.5c-5.64-1.02,2.44-10.79,6.45-11.12,1.93-.16,2.93,1.85,4.16,2.96-1.69,1.85-8.53,8.53-10.61,8.16Z"/>
      <path class="cls-3" d="M220.74,29.98c5.41-29.38-29.83-32.46-32.58-5.01,11.26-1.16,21.7,3.2,32.58,5.01Z"/>
      <path class="cls-4" d="M170.63,254.89c-28.25,9.9-35.35,51.45,4.37,48.31,2.64-.21,18.45-4.01,19.26-5.16,5.53-7.89-15.91-38.23-23.63-43.15Z"/>
      <path class="cls-1" d="M168.07,309.51c-21.44-1.07-32.13-15.99-24.38-36.36,4.63-12.16,13.78-17.99,24.31-24.44-26.49-61.32-116.88-64.62-150.03-7.3-8.44,14.58-16.69,42.88-8.79,58.45,5.62,11.07,17.49,12.24,26.14,18.98,16.14,12.63,12.4,40.15,40.57,36.88,6.19-.72,12.52-4.26,18.92-4.88,13.75-1.35,27.78,5.44,40.36.24,12.04-4.97,8.83-17.05,17.28-22.82,5.87-4.01,11.41-.86,11.91-1.23.72-.54,4.42-16.95,3.72-17.52ZM85.73,311.9c-17.88,0-32.38-14.5-32.38-32.38s14.5-32.38,32.38-32.38,32.36,14.48,32.36,32.38-14.48,32.38-32.36,32.38Z"/>
      <path class="cls-3" d="M148.07,348.97c-5.69,8.07-17.45,11.06-27.01,10.71-5.1-.19-11.18-2.26-16.24-2.57-16.69-1.03-30.88,10.63-47.41,2.29-14.98-7.57-14.65-24.98-24.63-34.27-2.34-2.18-20.03-12-21.32-10.62,3.53,21.67,26.02,44.66,46.37,52,19.6,7.07,44.01,5.05,63.93.03,16.53-4.16,40.58-12.76,40.07-33.23-10.81-1.92-9.21,9.21-13.77,15.67Z"/>
      <path class="cls-3" d="M299.68,327.64c-10.49,4.76-23.46,8.22-34.8,10.33-1.74.32-6.02.09-6.44.44-.74.62-3.15,11.52-2.02,13.7,3.21,6.19,34.38,6.74,41.25,6.1,3.1-.29,15.12-2.61,17.08-4.22,4.87-4.01-6.75-24.33-6.29-30.73-3.47.09-5.72,2.99-8.77,4.38Z"/>
      <path class="cls-3" d="M292.19,117.07c-9.51-8.44-20.9-12.08-21.34-26.93-3.02,1.54-18.74,10.82-18.79,3.14-.03-3.49,5.33-3.28,8-4.53,13.43-6.32,23.1-19.28,15.6-34.1-7.43-14.69-24.48-10.66-34.88-1.5-2.57,2.26-10.94,14.16-11.86,14.21-1.06.07-4.6-2.08-4.31-3.97.68-4.32,11.93-13.56,12.35-15.38,1.01-4.55-18.38-11.56-22.22-12.66-48.19-13.9-101.44,3.17-135.02,39.72-2.37,2.6-10.63,12.04-11.86,14.45-1.89,3.64,6.99.67,8.13.62,19.96-.93,48.68,4.27,59.8,22.93,8.24,13.83,1.84,41.14-6.27,54.4-19.44,31.74-49.85,17.98-75.43,2.88.85,6.79,11.26,26.07,18.09,26.18,3.69.05,9.48-2.13,13.8-2.42,12.87-.85,29.09,1.9,41.12,6.62,4.32,1.71,12.73,7.38,16.46,7.2,6.88-.32,27.35-12.17,33.73-16.5,5.17-3.49,9.72-10.14,15.88-9.78,3.75,3.71-12.35,14.95-15.13,16.81-4.05,2.7-8.94,5.69-13.65,7.04-1.45,2.15,4.57,8.32,6,10.86,5.04,8.91,9.44,18.84,10.27,29.21l6.24-1.23c2.54,7.88-2.67,6.24-8.11,7.54-.91.23-2.89-.5-1.89,1.84.67,1.54,5.82,5.49,7.48,7.56,7.18,8.89,15.26,21.44,15.07,33.17,5.8,1.01,16.12-16.72,20.06-13.77,3.49,2.63-5.27,11.23-7.51,13.17-10.84,9.41-23.96,12.12-37.38,15.88-1.07,6.78-2.62,13.46-4.34,20.11-.88,3.4-5.74,16.06-5.54,17.93.13,1.25,1.93,2.26,3.06,2.81,8.91,4.45,28.69,7.41,38.55,6.55,2.63-.23,18.51-4.03,19.28-5.15.6-.89,1.2-14.87,1.4-17.41,31.92-.67,64.31-3.72,89.59-25.09,61.96-52.37,27.53-146.33-24.4-192.37ZM180.35,141.23c-4.31,4.27-12.74-1.88-15.33-6.01-1.89-3.02-3.53-12.6-.76-14.43,9.2-6.11,22.88,13.7,16.09,20.45ZM246.5,67.66c-2.94,4.11-2.6,10.14-9.44,8.66-4.05-2.86,6.94-15.83,10.08-18.07,3.66-2.62,18.19-8.55,21.05-4.27.41.58.37,4.66.18,4.83-.29.26-5.85-.11-7.87.29-5.07,1.02-10.95,4.31-13.99,8.57Z"/>
      <path class="cls-4" d="M277.71,363.43l-21.89-4.43c2.33,12.32,6.97,20.94,19.99,23.88,18.54,4.18,41.04-.65,41.43-23.26-13.25,3.16-25.81,4.53-39.53,3.81Z"/>
      <path class="cls-4" d="M164.36,354.6c-4.11,32.03,62.64,38.16,60.14,3.76-20.22,6.41-40.81,4.62-60.14-3.76Z"/>
    </g>
  </g>
</svg>