<?xml version="1.0" encoding="UTF-8"?>
<svg id="Layer_2" data-name="Layer 2" xmlns="http://www.w3.org/2000/svg" viewBox="0 0 390.95 384.2">
  <defs>
    <style>
      .cls-1 {
        fill: #f4b2bf;
      }

      .cls-2 {
        fill: #ffddc7;
      }

      .cls-3 {
        fill: #dda883;
      }

      .cls-4 {
        fill: #b67e6d;
      }
    </style>
  </defs>
  <g id="Layer_1-2" data-name="Layer 1">
    <g>
      <path d="M177.95,30.82c2.79-1.72,14.5,3.13,14.92,2.49.21-.31.02-2.51.61-3.73,14.91-31.09,62.48-8.48,47.2,22.41,3.37,2.46,7.29,4.37,10.57,6.92,2.63,2.04,9.49,9.01,11.32,9.93,2.1,1.06,10.11-4.16,13.59-5.11,37.14-10.19,52.59,31.79,23.62,52.23-1.73,1.22-6.99,3.02-7.22,3.34-.8,1.13,2.32,18.61,1.23,22.08,59.3,12.44,101.23,74.12,96.87,133.88-5.48,75.16-70.8,104.48-138.68,97.64-4.64-.47-10.38-3.04-14.83-2.48-3.78.47-9.75,5.86-13.55,7.69-18.81,9.04-44.14,9.18-58.68-7.52-17.22,15.15-44.24,13.07-64.71,6.06-55.09-18.84-59.73-81.75-43.02-129.88-7.39-4.8-15.48-8.22-22.67-13.4C-30.56,186.56,6.35,99.39,63.13,63.35c1.11-.7,3.69-1.23,3.95-1.6.64-.94-.07-4.43.44-6.4,2.11-8.21,13.67-17.26,22.13-18.33-12.05-31.94,21.97-47.51,44.15-26.14,18.75-21.45,48.66-9.29,44.15,19.94Z"/>
      <path class="cls-1" d="M81.01,74.9c3.04,2.08,9.38,4.47,13,4.46,3.43-.01,8.31-3.67,10.62-1.98,2.67,1.95-.57,17.17,11.89,22.96,11.89,5.53,22.54-.85,27.21-12.32.92-2.27,1.96-8.62,3.04-9.39,2.95-2.1,15.21,3.35,24.16-1.96,11.1-6.59,10.02-19.63,3.58-29.35-1.94-2.93-8.73-7.99-8.91-8.59-.83-2.73,3.13-6.37,4.04-9.37,1.84-6.03,1.34-13.41-3.29-18.04-5.55-5.55-13.55-5.17-20.15-1.68-3.68,1.95-10.42,10.47-13.47,9.82-.91-.19-6.87-6.33-9.58-7.84-13.54-7.51-29.55-2.07-28.54,14.82.24,3.97,3.47,11.6,2.39,14.79-.8,2.37-9.23,2.6-12.77,4.69-10.69,6.33-14.38,21.35-3.21,28.98ZM130.36,31.15c10.79,0,19.54,8.75,19.54,19.54s-8.75,19.54-19.54,19.54-19.54-8.75-19.54-19.54,8.75-19.54,19.54-19.54Z"/>
      <path class="cls-4" d="M43.28,208.42c34.43,12.37,62.7-18.26,67.38-50.23,3.09-21.17-3.08-33.33-20.6-45.06-10.73-7.19-39.34-21.46-51.78-18.6-4.42,1.02-14.25,15.97-16.81,20.5-9.12,16.16-17.47,43.26-13.65,61.69,2.36,11.39,24.84,27.9,35.46,31.71ZM93.37,130.34c3.49,3.42-11.91,12.95-14.89,6.84.66-4.27,12.73-8.97,14.89-6.84ZM46.12,114.16c.17-.17,4.13-.24,4.78.2,1.14.79,3.7,9.95,2.67,10.99-6.07,3.36-8.99-9.59-7.45-11.19ZM22.55,160.26c.1-.13,2.9-1.05,3.07-1.05,2.3.04,5.82,13.99,8.26,17.57,2.11,3.1,4.99,5.66,8.49,7.05,4.54-11.11,7.06-29.13,14.38-38.49,3.44-4.39,6.35-2.34,5.31,2.77-.78,3.81-6.11,12.47-7.85,17.08-2.55,6.76-3.97,13.88-6.82,20.52,5.43,4.23,13.86,2.39,19.85-.03,3.29-1.33,6.76-4.89,8.32-5.37,6.47-1.99,5.7,2.9,1.58,6.57-17.37,15.44-46.38,4.57-53.08-16.44-.62-1.96-2.45-8.96-1.51-10.16Z"/>
      <path class="cls-2" d="M135.3,62.17c13.39-7.15,8.18-24.85-5.25-24.55-20.07.45-13.43,34.53,5.25,24.55Z"/>
      <path class="cls-4" d="M161.66,344.42c-.18-.25-2.88-.85-4-1.56-4.8-3.02-12.62-9.75-17.08-11.67-5.59-2.41-21.75,15.22-24.6,20.15-1.66,2.87-8.07,20.17-6.39,21.52,13.38,2.73,32.1,5.1,44.37-2.19,1.75-1.04,7.26-5.65,7.57-7.24.24-1.24-1.14-5.83-1.07-8.59.06-2.47,1.9-9.47,1.21-10.42Z"/>
      <path class="cls-3" d="M232.27,46.85c3.75.62,4.41-8.18,3.58-11.09-4.69-16.59-31.76-19.89-36.75-1.22,6,1.38,11.95,3.16,17.73,5.29,3.74,1.39,13.1,6.63,15.44,7.02Z"/>
      <path class="cls-3" d="M330.09,164.14c-7.68-5.39-17.76-11.7-26.76-14.29-2.98-.86-9.42-3.28-10.7,0-1.92,4.91-2.74,10.88-5,16.15-2.35,5.51-6.08,11.66-9.65,16.47-2.06,2.77-20.8,24.27-19.25,10.67.21-1.83,8.91-8.4,11.24-11.22,9.99-12.05,17.23-30.3,17.54-46,.09-4.74-2.21-9.37-1.35-14.32-1.27-1.32-19.31,3.19-22.22,1.09-.67-.48-2.08-4.35-.22-5.48,1.54-.94,15.25-1.4,19-2.14,15.99-3.16,29.81-15.08,24.63-32.7-6.28-21.33-33.09-13.25-46.09-2.45-2.72,2.26-8.31,10.28-11.78,9.35-6.8-1.81,5.78-13.74,8.05-15.55-14.84-14.6-34.8-25.19-54.71-31.1-9.06-2.69-19.25-5.68-28.6-4.98,13.56,10.21,17.76,32.82,2.41,43.47-8.16,5.66-16.59,4.42-26.01,4.47-3.79,30.37-47.39,32.12-51.14.07-12.55.98-27.04-3.15-31.01-16.28-1.93-1.43-23.22,14.82-24.85,18.05-1.41,2.8,6.05,1.83,7.76,2.17,15.17,3.01,44.58,18.15,55.06,29.52,30.08,32.64-6.62,102.37-50.88,98.15-16.11-1.53-30.7-11.76-42.43-22.25-1.79.88.25,3.03.82,4.16,18.32,36.22,64.84,53.56,103.71,50.62,9.27-.7,17.57-5.15,26.69-5.02,1.64,6.77-6.88,8.3-12.17,9.59-23.63,5.75-47.35,2.28-69.91-5.86-4.63,22.54-10.02,43.04-5.9,66.23,4.61,25.97,21.44,47.94,46.94,55.67.78-17.73,13.52-36.41,29.85-43.55,2.14-3.06-18.57-15.95-14.89-21.1.09-.13,2.78-.83,3.11-.8,4.05.31,4.79,4.52,6.8,6.38,4.34,4.02,9.94,9.42,14.34,13.02,3.25,2.66,16.89,12.76,19.94,13.66,2.48.73,1.48-.61,1.9-1.68,1.35-3.43,5.72-24.36,12.31-19.39,2.35,4.43-2.45,5.65-2.46,9.92,22.06,1.13,51.85,13.78,57.22,37.33,2.67,3.8,19.63-18.72,20.93-20.74,2.27-3.54,10.72-22.28,12.13-22.71,7.88-2.4,1.93,10.37.74,13.19-4.93,11.64-11.75,18.46-19.51,27.76-1.04,1.25-2.38,1.61-1.86,3.73,42.06,5.37,87.93,1.44,116.88-32.98,44.15-52.48,22.15-131.21-30.67-168.3ZM276.59,80.33c2.09-.76,4.61-1.61,6.78-1.92,2.7-.39,8.05-1.04,10.29.27,1.78,1.04,1.77,4.02,0,5.05-2.14,1.24-5.49.26-8,.71-6.91,1.24-12.32,3.92-17.54,8.58-1.6,1.43-5.63,9.97-8.74,5.02-3.84-6.11,12.29-15.9,17.21-17.7ZM176.6,164.35c-7.32,10.77-28.72-4.01-24.66-15.25,7.95-2.64,9.48,4.67,14.47,7.08,3.35,1.62,14.77,1.43,10.19,8.17Z"/>
      <path class="cls-4" d="M171.89,333.25c-7.07,17.51-8.96,37.34,13.26,43.02,15.68,4.01,28.46-.66,42.56-7.12-7.02-22.85-32.88-36.65-55.81-35.9Z"/>
    </g>
  </g>
</svg>